
        <svg xmlns="http://www.w3.org/2000/svg" xmlns:xlink="http://www.w3.org/1999/xlink" version="1.1" width="3162.1621621621625" height="609.3567513130807" viewBox="0 0 3162.1621621621625 609.3567513130807">
			
			<g transform="scale(8.108108108108109) translate(10, 10)">
				<defs id="SvgjsDefs1021"/><g id="SvgjsG1022" featureKey="PG4fjM-0" transform="matrix(1,0,0,1,0,0)" fill="#000"><path xmlns="http://www.w3.org/2000/svg" d="M77.959,55.154H11.282C5.061,55.154,0,50.093,0,43.873c0-5.278,3.643-9.721,8.546-10.946  c2.188-5.469,7.248-9.386,13.149-10.089C22.317,10.14,32.843,0,45.693,0c9.417,0,17.822,5.536,21.723,13.756  c3.203-1.75,6.812-2.682,10.543-2.682c12.153,0,22.041,9.887,22.041,22.04C100,45.267,90.113,55.154,77.959,55.154L77.959,55.154z   M11.209,40.372c-1.897,0.039-3.429,1.595-3.429,3.501c0,1.931,1.57,3.501,3.501,3.501h66.678c7.863,0,14.26-6.397,14.26-14.26  c0-7.863-6.396-14.259-14.26-14.259c-3.683,0-7.18,1.404-9.847,3.952l-5.096,4.871l-1.404-6.908  C60.083,13.243,53.388,7.78,45.693,7.78c-8.958,0-16.247,7.288-16.247,16.246c0,0.728,0.054,1.483,0.159,2.246l0.73,5.287  l-5.256-0.923c-0.498-0.087-0.993-0.132-1.474-0.132c-4.002,0-7.479,2.842-8.267,6.757l-0.65,3.227l-3.29-0.106  C11.336,40.379,11.272,40.375,11.209,40.372L11.209,40.372z"/></g><g id="SvgjsG1023" featureKey="jxYttZ-0" transform="matrix(3.190403552751144,0,0,3.190403552751144,114.25727375717824,-12.377750235838471)" fill="#000"><path d="M12.92 10.52 c0 3.04 -2.36 5.5 -5.28 5.52 l-3.6 0 l0 3.96 l-2.24 0 l0 -15 l5.84 0 c2.92 0.02 5.28 2.48 5.28 5.52 z M7.6 14.2 c1.72 0 3.1 -1.66 3.1 -3.68 s-1.38 -3.68 -3.1 -3.68 l-3.56 0 l0 7.36 l3.56 0 z M21.64 5 l6.16 15 l-2.4 0 l-1.5 -3.92 l-5.9 0 l-1.48 3.92 l-2.4 0 l6.16 -15 l1.36 0 z M18.700000000000003 14.24 l4.5 0 l-2.24 -5.92 z M39.9 14.5 c0.06 0.14 0.54 1.5 -0.08 2.92 c-0.72 1.7 -2.74 2.76 -5.26 2.78 c-2.18 0 -4.16 -0.96 -5.56 -2.48 l1.48 -1.48 c0.7 1.24 2.48 2.12 4.08 2.12 c1.74 -0.02 2.76 -0.66 3.18 -1.66 c0.32 -0.74 0.06 -1.54 0.04 -1.56 c-0.42 -1.16 -1.58 -1.42 -3.22 -1.92 c-1.86 -0.56 -4 -1.02 -4.7 -2.98 c-0.38 -1.02 -0.28 -2.2 0.24 -3.16 c1.16 -2.2 4.12 -2.26 4.46 -2.26 c2.2 0 4.16 0.96 5.56 2.5 l-1.46 1.46 c-0.82 -1.2 -2.42 -2.12 -4.1 -2.12 c-0.02 0 -1.78 0 -2.46 1.28 c-0.26 0.5 -0.32 1.16 -0.14 1.68 c0.4 1.1 1.54 1.36 3.14 1.84 c1.9 0.58 4.04 1.02 4.8 3.04 z M53.44 14.5 c0.06 0.14 0.54 1.5 -0.08 2.92 c-0.72 1.7 -2.74 2.76 -5.26 2.78 c-2.18 0 -4.16 -0.96 -5.56 -2.48 l1.48 -1.48 c0.7 1.24 2.48 2.12 4.08 2.12 c1.74 -0.02 2.76 -0.66 3.18 -1.66 c0.32 -0.74 0.06 -1.54 0.04 -1.56 c-0.42 -1.16 -1.58 -1.42 -3.22 -1.92 c-1.86 -0.56 -4 -1.02 -4.7 -2.98 c-0.38 -1.02 -0.28 -2.2 0.24 -3.16 c1.16 -2.2 4.12 -2.26 4.46 -2.26 c2.2 0 4.16 0.96 5.56 2.5 l-1.46 1.46 c-0.82 -1.2 -2.42 -2.12 -4.1 -2.12 c-0.02 0 -1.78 0 -2.46 1.28 c-0.26 0.5 -0.32 1.16 -0.14 1.68 c0.4 1.1 1.54 1.36 3.14 1.84 c1.9 0.58 4.04 1.02 4.8 3.04 z M59.099999999999994 5 l0 15 l-2.22 0 l0 -15 l2.22 0 z M79.84 5 l0.32 0 l0 15 l-2.22 0 l0 -11.26 l-5.78 11.26 l-1.26 0 l-5.78 -11.26 l0 11.26 l-2.22 0 l0 -15 l0.3 0 l2.38 0 l5.94 11.6 l5.94 -11.6 l2.38 0 z"/></g>
			</g>
		</svg>
	